<svg width="50" height="44" viewBox="0 0 50 44" fill="none" xmlns="http://www.w3.org/2000/svg">
<g clip-path="url(#clip0_2154_248)">
<g clip-path="url(#clip1_2154_248)">
<path d="M25.002 3.0896C38.3639 3.0896 49.1895 7.12085 49.1895 13.8396V29.9646C49.1895 36.6833 38.3639 40.7146 25.002 40.7146C11.6401 40.7146 0.814484 36.6833 0.814484 29.9646V13.8396C0.814484 7.12085 11.6401 3.0896 25.002 3.0896ZM45.1582 13.8396C45.1582 13.0082 44.4864 11.3285 40.5391 9.65718C38.977 8.9937 37.1041 8.4478 34.9961 8.02788L32.6614 11.6896C32.0483 12.6554 31.7207 13.7724 31.7207 14.9146C31.7207 16.3843 32.2582 17.8037 33.2409 18.9039L34.0639 19.8277C36.5666 19.391 38.7586 18.7779 40.5475 18.022C44.5032 16.3507 45.1666 14.671 45.1666 13.8396H45.1582ZM30.1418 20.3316C29.47 18.1312 27.4207 16.5271 25.002 16.5271C22.5832 16.5271 20.5256 18.1312 19.8621 20.3316C21.4914 20.4744 23.2131 20.5583 25.002 20.5583C26.7909 20.5583 28.5125 20.4828 30.1418 20.3316ZM15.0078 8.02788C12.8914 8.4478 11.027 9.0021 9.46487 9.65718C5.51761 11.3285 4.84573 13.0082 4.84573 13.8396C4.84573 14.671 5.51761 16.3507 9.46487 18.022C11.2537 18.7779 13.4457 19.391 15.9485 19.8277L16.7715 18.9039C17.7457 17.8037 18.2916 16.3843 18.2916 14.9146C18.2916 13.7724 17.9641 12.6554 17.351 11.6896L15.0078 8.02788ZM19.7362 7.35601C19.669 7.70874 19.627 8.08667 19.627 8.4646C19.627 11.4292 22.0373 13.8396 25.002 13.8396C27.9666 13.8396 30.377 11.4292 30.377 8.4646C30.377 8.08667 30.335 7.70874 30.2594 7.35601C28.5965 7.20483 26.8328 7.12085 25.002 7.12085C23.1711 7.12085 21.4075 7.20483 19.7446 7.35601H19.7362Z" fill="white"/>
</g>
</g>
<defs>
<clipPath id="clip0_2154_248">
<rect width="48.38" height="43" fill="white" transform="translate(0.811981 0.4021)"/>
</clipPath>
<clipPath id="clip1_2154_248">
<rect width="48.38" height="43" fill="white" transform="translate(0.811981 0.4021)"/>
</clipPath>
</defs>
</svg>
