<svg width="44" height="43" viewBox="0 0 44 43" fill="none" xmlns="http://www.w3.org/2000/svg">
<g clip-path="url(#clip0_2171_229)">
<path d="M11.0835 30.4583C11.0835 26.875 18.2502 24.9042 21.8335 24.9042C25.4168 24.9042 32.5835 26.875 32.5835 30.4583V32.25H11.0835M27.2085 16.125C27.2085 17.5505 26.6422 18.9177 25.6342 19.9257C24.6262 20.9337 23.259 21.5 21.8335 21.5C20.408 21.5 19.0408 20.9337 18.0328 19.9257C17.0248 18.9177 16.4585 17.5505 16.4585 16.125C16.4585 14.6995 17.0248 13.3323 18.0328 12.3243C19.0408 11.3163 20.408 10.75 21.8335 10.75C23.259 10.75 24.6262 11.3163 25.6342 12.3243C26.6422 13.3323 27.2085 14.6995 27.2085 16.125ZM5.7085 8.95833V34.0417C5.7085 34.992 6.08602 35.9035 6.75803 36.5755C7.43004 37.2475 8.34147 37.625 9.29183 37.625H34.3752C35.3255 37.625 36.237 37.2475 36.909 36.5755C37.581 35.9035 37.9585 34.992 37.9585 34.0417V8.95833C37.9585 8.00797 37.581 7.09654 36.909 6.42453C36.237 5.75253 35.3255 5.375 34.3752 5.375H9.29183C8.34147 5.375 7.43004 5.75253 6.75803 6.42453C6.08602 7.09654 5.7085 8.00797 5.7085 8.95833Z" fill="black"/>
</g>
<defs>
<clipPath id="clip0_2171_229">
<rect width="43" height="43" fill="white" transform="translate(0.333496)"/>
</clipPath>
</defs>
</svg>
